<svg xmlns="http://www.w3.org/2000/svg" version="1.1" xmlns:xlink="http://www.w3.org/1999/xlink" xmlns:svgjs="http://svgjs.dev/svgjs" width="2000" height="1500" viewBox="0 0 2000 1500"><rect width="2000" height="1500" fill="#fd5526"></rect><g transform="matrix(0.75,0,0,0.75,249.090909090909,364.0622468820584)"><svg viewBox="0 0 396 204" data-background-color="#fd5526" preserveAspectRatio="xMidYMid meet" height="1030" width="2000" xmlns="http://www.w3.org/2000/svg" xmlns:xlink="http://www.w3.org/1999/xlink"><g id="tight-bounds" transform="matrix(1,0,0,1,0.2400000000000091,-0.08245742904841791)"><svg viewBox="0 0 395.52 204.16491485809684" height="204.16491485809684" width="395.52"><g><svg viewBox="0 0 395.52 204.16491485809684" height="204.16491485809684" width="395.52"><g><svg viewBox="0 0 395.52 204.16491485809684" height="204.16491485809684" width="395.52"><g id="textblocktransform"><svg viewBox="0 0 395.52 204.16491485809684" height="204.16491485809684" width="395.52" id="textblock"><g><svg viewBox="0 0 395.52 204.16491485809684" height="204.16491485809684" width="395.52"><g transform="matrix(1,0,0,1,0,0)"><svg width="395.52" viewBox="2.51 -36.94 73.11999999999999 37.75" height="204.16491485809684" data-palette-color="#f2f2f2"><path d="M10.28-36.67L13.65-36.72 21.48-36.79Q23.97-36.79 26-36.69L26-36.69Q31.45-36.55 34.29-34.13 37.13-31.71 37.13-27.32L37.13-27.32Q37.13-24.27 35.35-22.11 33.57-19.95 30.15-18.31L30.15-18.31Q35.57-16.6 36.72-10.01L36.72-10.01Q36.99-8.57 37.15-6.71 37.3-4.86 37.4-4.22L37.4-4.22 37.65-2.98Q38.04-0.78 38.33 0.2L38.33 0.2 38.23 0.27Q34.08 0.54 30.65 0.54 27.22 0.54 24.58 0.42L24.58 0.42 24.44 0.42Q23.68 0.42 22.83-6.79L22.83-6.79 22.71-7.84Q22.61-10.52 21.77-11.45 20.92-12.38 18.85-12.38L18.85-12.38 18.53-12.35 17.24-12.35 17.24-4.93 17.26-4.15 17.26 0.32Q17.19 0.56 16.89 0.61L16.89 0.61Q14.21 0.71 9.31 0.71 4.42 0.71 2.86 0.73L2.86 0.73 2.71 0.68 2.66 0.71Q2.61 0.71 2.51 0.63L2.51 0.63 2.56-1.56 2.54-2.29 2.64-12.43 2.64-14.21 2.66-16.04 2.69-22.36 2.71-23.19 2.64-28.74Q2.64-28.74 2.73-36.52L2.73-36.52Q2.73-36.72 4.13-36.72L4.13-36.72 5.69-36.69 7.18-36.69 10.28-36.67ZM38.48 0.12L38.48 0.12 38.35 0.2 38.35 0.15Q38.35 0.12 38.48 0.12ZM38.33 0.2L38.35 0.2 38.35 0.22Q38.33 0.22 38.33 0.2L38.33 0.2ZM22.68-28.76L22.68-28.76Q21.22-29.39 18.77-29.39L18.77-29.39 17.36-29.39Q17.09-29 17.09-25.28 17.09-21.56 17.21-20.29L17.21-20.29Q24.85-20.46 24.85-25.56L24.85-25.56Q24.85-27.73 22.68-28.76ZM40.77-27.25L40.77-27.25 40.74-27.73 40.74-29.25Q40.74-32.4 40.87-36.47L40.87-36.47 40.82-36.52 42.14-36.6Q48.51-36.94 50.41-36.94L50.41-36.94 61.79-36.94Q67.62-36.94 71.48-34.52L71.48-34.52Q72.85-33.35 73.7-31.37 74.56-29.39 74.56-26.9L74.56-26.9Q74.56-22.09 68.11-18.73L68.11-18.73Q71.75-17.72 73.69-15.52 75.63-13.31 75.63-10.11L75.63-10.11Q75.63-4.44 70.55-1.51L70.55-1.51Q66.82 0.68 61.11 0.68L61.11 0.68 53.83 0.59Q49.12 0.59 41.33 0.81L41.33 0.81Q40.65-0.63 40.65-10.6 40.65-20.56 40.77-27.25ZM55.05-6.81L55.95-6.81Q62.28-6.81 62.28-11.23L62.28-11.23Q62.28-14.04 60.57-14.99L60.57-14.99Q59.03-15.82 55.86-15.92L55.86-15.92 55.15-15.92 54.71-14.55Q54.54-12.04 54.54-9.61 54.54-7.18 55.05-6.81L55.05-6.81ZM61.2-23.14L61.2-23.14Q61.69-24.07 61.69-25.39L61.69-25.39Q61.69-27.95 59.86-28.83 58.03-29.71 56.03-29.71 54.03-29.71 54.03-28.25L54.03-28.25Q54.03-25.63 54.15-22.9L54.15-22.9 54.2-21.61Q54.25-20.68 55.27-20.51L55.27-20.51 56.47-20.65Q60.18-21.09 61.2-23.14Z" opacity="1" transform="matrix(1,0,0,1,0,0)" fill="#f2f2f2" class="wordmark-text-0" data-fill-palette-color="primary" id="text-0"></path></svg></g></svg></g></svg></g></svg></g></svg></g><defs></defs></svg><rect width="395.52" height="204.16491485809684" fill="none" stroke="none" visibility="hidden"></rect></g></svg></g></svg>